<?xml version="1.0" encoding="UTF-8"?>
<svg id="a" data-name="Design" xmlns="http://www.w3.org/2000/svg" viewBox="0 0 179.54 45.62">
  <defs>
    <style>
      .b {
        fill: #0046aa;
      }

      .c {
        fill: #0a2343;
      }

      .d {
        fill: #e8e8e8;
      }
    </style>
  </defs>
  <path class="d" d="M18.84,45.62l-.1-.04c-.09-.04-8.92-4.18-14.05-14.19-.95-1.85-1.74-3.66-2.36-5.39C-.06,19.36-.02,14.1,0,9.01c0-.64,0-1.22,0-1.8V0h37.63v7.21c0,.29,0,.58,0,.87,0,.29,0,.59,0,.89.04,5.08.08,10.33-2.29,16.93v.02l-.04.1c-.62,1.73-1.41,3.55-2.34,5.37-5.16,10.05-13.96,14.16-14.05,14.19l-.1.04Z"/>
  <g>
    <path class="c" d="M47.02,27.85h1.4l2.33,6.85,2.33-6.85h1.38l-2.88,7.91h-1.64l-2.9-7.91Z"/>
    <path class="c" d="M55.96,25.06h1.33v1.6h-1.33v-1.6ZM55.97,27.85h1.3v7.91h-1.3v-7.91Z"/>
    <path class="c" d="M59.09,31.8c0-2.54,1.36-4.14,3.33-4.14,1.05,0,1.89.47,2.43,1.32v-3.92h1.3v10.7h-1.29l-.02-1.12c-.54.85-1.38,1.3-2.43,1.3-1.97,0-3.33-1.58-3.33-4.14ZM64.86,31.8c0-1.89-.81-2.96-2.19-2.96s-2.23,1.08-2.23,2.96.84,2.96,2.23,2.96,2.19-1.07,2.19-2.96Z"/>
    <path class="c" d="M67.92,31.82c0-2.53,1.58-4.16,3.75-4.16s3.47,1.74,3.49,4.42h-5.89c.09,1.72.95,2.68,2.42,2.68,1.08,0,1.83-.51,2.02-1.44h1.36c-.22,1.61-1.6,2.62-3.43,2.62-2.28,0-3.72-1.61-3.72-4.12ZM73.8,31.13c-.03-1.47-.85-2.29-2.17-2.29s-2.12.82-2.31,2.29h4.48Z"/>
    <path class="c" d="M76.82,27.85h1.3v1.29c.45-.84,1.18-1.29,2.17-1.29h.64v1.26h-.82c-1.32,0-1.98.82-1.98,2.54v4.11h-1.3v-7.91Z"/>
    <path class="c" d="M81.58,31.82c0-2.53,1.58-4.16,3.75-4.16s3.47,1.74,3.49,4.42h-5.89c.09,1.72.95,2.68,2.42,2.68,1.08,0,1.83-.51,2.02-1.44h1.36c-.22,1.61-1.6,2.62-3.43,2.62-2.28,0-3.72-1.61-3.72-4.12ZM87.46,31.13c-.03-1.47-.85-2.29-2.17-2.29s-2.12.82-2.31,2.29h4.48Z"/>
    <path class="c" d="M90.49,36.27h1.35c.19.87.9,1.33,1.94,1.33,1.26,0,2.02-.71,2.02-1.97v-1.32c-.53.81-1.35,1.24-2.37,1.24-1.92,0-3.24-1.5-3.24-3.94s1.32-3.95,3.24-3.95c1.02,0,1.84.45,2.37,1.27l.02-1.08h1.29v7.58c0,2.03-1.33,3.3-3.41,3.3-1.8,0-2.99-.96-3.19-2.46ZM95.8,31.61c0-1.8-.76-2.82-2.09-2.82s-2.17,1.05-2.17,2.82.82,2.81,2.17,2.81,2.09-1.02,2.09-2.81Z"/>
    <path class="c" d="M98.72,33.65c0-3.32,5.25-1.8,5.25-3.53,0-.34-.22-1.27-1.72-1.27-1.13,0-1.83.5-1.91,1.5h-1.32c.06-1.78,1.4-2.68,3.22-2.68,1.41,0,3.02.54,3.02,2.76v3.07c0,.98.05,1.67.22,2.26h-1.24c-.11-.37-.14-.74-.16-1.13-.64.88-1.71,1.32-2.79,1.32-1.54,0-2.59-.82-2.59-2.29ZM103.98,32.95v-1.43c-.74,1.01-3.94.22-3.94,2.03,0,.84.68,1.26,1.55,1.26,1.12,0,2.39-.7,2.39-1.86ZM100.71,24.89c0-.85.63-1.5,1.52-1.5s1.54.65,1.54,1.5-.64,1.5-1.54,1.5-1.52-.65-1.52-1.5ZM102.99,24.89c0-.47-.26-.79-.76-.79s-.76.33-.76.79.26.79.76.79.76-.33.76-.79Z"/>
    <path class="c" d="M107.05,31.82c0-2.53,1.58-4.16,3.75-4.16s3.47,1.74,3.49,4.42h-5.89c.09,1.72.95,2.68,2.42,2.68,1.08,0,1.83-.51,2.02-1.44h1.36c-.22,1.61-1.6,2.62-3.43,2.62-2.28,0-3.72-1.61-3.72-4.12ZM112.92,31.13c-.03-1.47-.85-2.29-2.17-2.29s-2.12.82-2.31,2.29h4.48Z"/>
    <path class="c" d="M116.01,27.85h1.29l.02,1.22c.57-.88,1.55-1.41,2.57-1.41,1.61,0,2.67,1.19,2.67,2.95v5.15h-1.3v-4.91c0-1.27-.59-1.98-1.75-1.98-1.3,0-2.19,1.02-2.19,2.5v4.4h-1.3v-7.91Z"/>
    <path class="c" d="M123.96,31.8c0-2.54,1.36-4.14,3.33-4.14,1.05,0,1.89.47,2.43,1.32v-3.92h1.3v10.7h-1.29l-.02-1.12c-.54.85-1.38,1.3-2.43,1.3-1.97,0-3.33-1.58-3.33-4.14ZM129.73,31.8c0-1.89-.81-2.96-2.19-2.96s-2.23,1.08-2.23,2.96.84,2.96,2.23,2.96,2.19-1.07,2.19-2.96Z"/>
    <path class="c" d="M132.48,31.82c0-2.53,1.58-4.16,3.75-4.16s3.47,1.74,3.49,4.42h-5.89c.09,1.72.95,2.68,2.42,2.68,1.08,0,1.83-.51,2.02-1.44h1.36c-.22,1.61-1.6,2.62-3.43,2.62-2.28,0-3.72-1.61-3.72-4.12ZM138.36,31.13c-.03-1.47-.85-2.29-2.17-2.29s-2.12.82-2.31,2.29h4.48Z"/>
    <path class="c" d="M144.87,33.13h1.32c.08,1.15.78,1.74,2.02,1.74,1.05,0,1.72-.45,1.72-1.21,0-2.03-4.87-.68-4.87-3.66,0-1.44,1.16-2.34,2.96-2.34s2.93.98,2.99,2.64h-1.32c-.06-1.01-.65-1.58-1.78-1.58-.98,0-1.53.4-1.53,1.12,0,2.02,4.87.59,4.87,3.71,0,1.52-1.19,2.4-3.1,2.4-2.09,0-3.19-1.04-3.27-2.81Z"/>
    <path class="c" d="M152.99,25.06h1.3v6.25l3.38-3.46h1.64l-2.82,2.87,3.25,5.04h-1.5l-2.65-4.14-1.3,1.32v2.82h-1.3v-10.7Z"/>
    <path class="c" d="M160.12,31.8c0-2.51,1.46-4.14,3.77-4.14s3.77,1.63,3.77,4.14-1.47,4.14-3.77,4.14-3.77-1.63-3.77-4.14ZM166.31,31.8c0-1.89-.88-2.96-2.42-2.96s-2.42,1.07-2.42,2.96.88,2.96,2.42,2.96,2.42-1.07,2.42-2.96Z"/>
    <path class="c" d="M169.11,25.06h1.3v10.7h-1.3v-10.7Z"/>
    <path class="c" d="M171.88,31.82c0-2.53,1.58-4.16,3.75-4.16s3.47,1.74,3.49,4.42h-5.89c.09,1.72.95,2.68,2.42,2.68,1.08,0,1.83-.51,2.02-1.44h1.36c-.22,1.61-1.6,2.62-3.43,2.62-2.28,0-3.72-1.61-3.72-4.12ZM177.76,31.13c-.03-1.47-.85-2.29-2.17-2.29s-2.12.82-2.31,2.29h4.48Z"/>
  </g>
  <path class="b" d="M6.64,18.12c.16,0,.27.14.35.23l.03.03.21.24c.16.24,1.16,1.75,1.31,1.95.22.29.47.28.95.15.47-.13,1.67-.9,1.67-.9l.11.4s.76-.26,1.61-.97l.16.34s.57-.38,1.37-1.12l.18.32s1.14-.78,3.05-2.12l-1.24,1.47.88,2.12c-.61.02-1.35.05-1.73.14-.17.04-.42.22-.59.43-1.21,1.43-1.89,3.08-1.89,3.08l.34.19s-.67,1.23-.87,2.18l.36.1s-.22,1.04-.22,2.05l.33.08.07.95c0,.16,0,.34-.31.3l-2.89-.22c-.07-.01-.14-.02-.21-.02-.1,0-.18.02-.26.05-.21.1-.48.28-.49.29h0s0,0,0,0c-.35.31-.34.86-.34.88v.1s.09-.04.09-.04c.02-.01.56-.27.69-.33.05-.02.1-.04.16-.04.11,0,.21.04.3.07l.04.02h.03s-.03.02-.05.02c-.17.03-.37.06-.51.21-.15.16-.31.41-.32.42h0s0,0,0,0c-.19.39.01.85.02.87l.04.09.06-.07s.39-.43.47-.53c.1-.12.27-.13.4-.13h.04s.07,0,.07,0c-.14.07-.29.15-.37.31-.1.2-.19.48-.19.49h0s0,0,0,0c-.08.43.24.82.26.84l.06.07.04-.08s.26-.52.31-.63c.07-.14.23-.2.35-.23h.04s.35-.13.35-.13c.78-.12,3.27-.07,3.76-.06.45,0,.66-.14.66-.52v-.59s.51.27.51.27c.22-.68.65-1.93.65-1.93l.32.18c.4-.94.7-1.8.7-1.8l.37.15s.38-.63.89-1.86l-.24-1.67c.51,1.21,1.19,2.52,2.07,3.64l.25-.26s.63.75,1.35,1.37l.23-.29s.62.68,1.47,1.33l.29-.32,1.02.86c.18.15.17.49-.14.49,0,0-2.13-.2-3.05-.28h0s-.05,0-.07,0c-.1,0-.18.02-.26.05-.21.1-.48.28-.49.29h0s0,0,0,0c-.35.31-.34.86-.34.88v.1s.09-.04.09-.04c.02-.01.57-.27.69-.33.05-.02.1-.04.16-.04.11,0,.21.04.3.07l.04.02h.03s-.03.02-.05.02c-.17.03-.37.06-.51.21-.15.16-.31.41-.32.42h0s0,0,0,0c-.19.39.01.85.02.87l.04.09.06-.07s.39-.43.47-.53c.1-.12.27-.12.4-.13h.04s.07,0,.07,0c-.14.07-.29.15-.37.31-.1.2-.19.48-.19.49h0s0,0,0,0c-.08.43.24.82.25.84l.06.07.04-.08s.26-.52.31-.63c.07-.14.23-.19.35-.23h.04s.57-.2.57-.2c.81-.15,2.65-.18,4.32-.2.47,0,.46-.26.39-.54l-.1-.59.81.25c0-.76-.17-1.6-.17-1.6l.42-.04c-.36-1.6-.89-2.51-.89-2.51l.43-.13s-.38-1.09-1.57-2.77l.92-.22c-.62-1.13-1.61-2.49-4.22-5.6l-.88-2.72c.33-.66.78-2.07.78-2.07l.33.04c.73-1.67,1.27-4.06,1.27-4.06l.25-.02c.07-1.53-.41-2.74-.41-2.74l.27-.09c-.24-.94-.81-1.57-.92-1.69.44-.12.76-.52.76-.99,0-.57-.46-1.03-1.03-1.03-.28,0-.54.12-.73.3-.28-.53-1.03-.75-2.02-.65-1.31.14-1.62.31-2.5.54-.58.15-.51.6-.51.6l-1.61.63c-.31-.08-.71-.03-.75.14-.03.11-.01.23.25.66,0,0,.1-.29.21-.2.11.1-.06.24-.1.31-.05.08-.06.55.16.65,0,0,.03.01.08.03,0,.17.04.33.1.46h-.89c-.33,0-.53-.1-.65-.33l-.1-.18-.17.11c-.1.06-.26.24-.25.53.03.45.58.66,1.11.66h.87c-.05.09-.07.2-.06.31.03.3.26.4.44.42.28.02.52-.14.52-.14,0,0,1.27-.07,1.8.43l-.32.58c-.32-.09-.94-.23-1.57-.13l-.03.26s-1.04.04-1.64.41l.06.22s-.85.37-1.23.91l.2.24s-.56.6-1.23,1.68l.45-1.4s-.76-1.07-2.76-2.54c-.15-.11-.13-.65.1-1.28.2-.57.17-1.59.15-1.9,0-.06,0-.13-.03-.19-.08-.22-.23-.51-.23-.52h0s0,0,0,0c-.07-.1-.17-.19-.29-.26-.26-.15-.53-.17-.54-.17h-.09s.03.08.03.08c0,.02.21.59.25.72.06.16-.03.33-.09.45l-.02.04-.12.26c0-.11-.01-.21-.02-.27,0-.03,0-.06,0-.09,0-.17-.02-.38-.15-.53-.14-.16-.37-.36-.38-.36h0s0,0,0,0c-.01,0-.02-.01-.03-.02-.36-.21-.82-.07-.84-.06l-.09.03.06.07s.38.43.47.53c.11.12.09.29.08.41v.04s-.02.3-.02.3c0,0,0,0,0-.01-.01-.03-.02-.05-.03-.08-.05-.16-.12-.36-.29-.47-.03-.02-.07-.04-.11-.07-.17-.1-.35-.18-.36-.18h0s0,0,0,0c-.41-.13-.84.14-.86.16l-.08.05.08.05s.48.32.59.38c.13.08.17.25.19.38v.04s.08.37.08.37c.2,1.3.68,2.64.68,2.64l-.34.15s.36.98.92,1.63l-.3.28s.55.68,1.17,1.24l-.21.32s.87,1,1.9,1.71c-.36.56-.87,1.35-1.37,2.05-.91,1.29-.81,1.15-.81,1.15-.16.21-.48.17-.53-.01l-.42-1.36c-.02-.12-.04-.22-.05-.28,0-.03-.01-.06-.02-.09-.03-.18-.07-.4-.24-.55-.18-.16-.45-.33-.46-.34h0s0,0,0,0c-.11-.05-.24-.08-.39-.08-.29,0-.54.11-.55.12l-.09.04.07.06s.47.41.58.5c.13.11.14.3.15.43v.05s.02.28.02.28c-.06-.1-.12-.18-.15-.23-.02-.02-.03-.05-.05-.07-.09-.14-.2-.32-.4-.38-.21-.07-.5-.12-.51-.12h0s0,0,0,0h-.03c-.42,0-.74.35-.76.37l-.06.07.09.03s.55.18.67.22c.15.05.22.2.28.32l.02.04.13.27s0,0,0,0c-.02-.02-.04-.04-.07-.06-.13-.11-.28-.25-.49-.26-.04,0-.08,0-.12,0-.2,0-.39.02-.4.02h0c-.42.1-.66.55-.66.57l-.04.08h.1s.58.04.7.04ZM9.88,30.3c-.15-.05-.39-.14-.62-.02-.07.03-.28.14-.45.22,0-.05.02-.11.04-.17.05-.13.11-.23.19-.31.04-.03.28-.18.46-.27.13-.06.31-.02.46.01.03,0,.11.02.14.03.37.09.4.41.4.41-.25.17-.4.17-.58.1l-.04-.02ZM10.03,31.21h-.04c-.14,0-.38.02-.54.2-.05.05-.19.22-.31.34-.01-.05-.02-.1-.02-.16,0-.12.01-.23.06-.33.03-.04.17-.25.29-.39.09-.1.25-.13.4-.15.03,0,.1-.02.13-.02.34-.05.49.21.49.21-.15.23-.28.28-.46.29ZM10.54,31.97h-.04c-.14.06-.36.13-.47.35-.03.06-.13.26-.2.42-.02-.05-.04-.09-.06-.15-.04-.12-.05-.23-.03-.33.02-.05.1-.29.18-.45.06-.12.21-.19.34-.25.03-.01.09-.04.12-.06.32-.14.53.08.53.08-.09.27-.2.35-.36.4ZM22.2,31.53c-.15-.05-.39-.14-.62-.03-.07.03-.28.14-.45.22.01-.05.02-.11.04-.17.05-.13.11-.23.19-.31.05-.03.28-.18.46-.27.13-.06.31-.02.46.01.03,0,.11.02.14.03.37.09.4.41.4.41-.25.17-.4.17-.58.1l-.04-.02ZM22.35,32.43h-.04c-.14,0-.38.02-.54.2-.05.05-.19.22-.31.34,0-.05-.02-.1-.02-.16,0-.12.01-.23.06-.33.03-.04.17-.26.29-.39.09-.1.25-.13.4-.15.03,0,.1-.02.13-.02.34-.05.49.21.49.21-.15.23-.28.28-.46.29ZM22.86,33.19h-.04c-.14.06-.37.13-.47.35-.03.06-.13.26-.2.42-.02-.04-.04-.09-.06-.15-.04-.12-.05-.23-.03-.33.02-.05.1-.29.18-.46.06-.12.21-.19.34-.25.03-.01.09-.04.12-.06.32-.14.53.08.53.08-.09.27-.2.35-.36.4ZM15.84,7.97c-.46,0-.9-.17-.92-.47-.01-.24.15-.34.15-.34.2.35.52.43.83.43h.98c.06.12.14.25.24.39h-1.28ZM17.35,7.79c-.16-.17-.36-.46-.41-.84.17,0,.35-.02.56-.03-.07.21-.14.5-.16.87ZM18.88,5.52c.03-.09.18-.31.5-.16.32.16.82.19.82.19-.25.17-.6.36-.97.3-.37-.06-.38-.23-.35-.33ZM18.49,6.88s0,0,0,0c0,0,0,0,.01,0,0,0,0,0,0,0h0s.09,0,.13,0c.21,0,.37,0,.49.01,0,0,0,0,0,0,.32.02.39.06.39.06,0,0,.08.02.16.09-.12.19-.23.32-.23.32-.19-.2-.29-.4-.32-.47-.15.25-.32.46-.32.46-.18-.19-.28-.39-.32-.46-.15.26-.32.47-.32.47-.18-.19-.28-.39-.32-.46.18-.01.39-.02.64-.02ZM17.62,7.96c-.05-.3,0-.58.07-.77.17.35.37.6.52.77-.2,0-.41,0-.59,0ZM18.76,7.93c-.16.01-.34.02-.52.02.04-.09.12-.27.28-.46,0,0,.18.19.34.43-.03,0-.06,0-.1,0ZM18.87,7.93c.04-.1.13-.26.27-.43,0,0,.14.16.29.36-.15.03-.34.05-.56.07ZM9.2,7.28c-.25-.11-.32-.24-.36-.41v-.04c-.03-.14-.08-.38-.28-.5-.06-.04-.24-.16-.39-.25.04-.02.1-.03.15-.04.12-.02.23-.02.33,0,.05.02.28.13.43.23.11.07.16.23.21.37,0,.03.03.1.04.13.11.33-.14.51-.14.51ZM9.97,6.88c-.21-.18-.25-.31-.24-.49v-.04c.01-.14.03-.38-.13-.56-.05-.05-.19-.21-.31-.34.05,0,.1,0,.16,0,.12,0,.23.04.32.09.04.03.23.2.35.34.09.1.1.27.1.41,0,.03,0,.1,0,.13.01.35-.27.46-.27.46ZM10.79,7.06c-.14-.27-.12-.42-.04-.59l.02-.04c.07-.14.19-.37.1-.62-.03-.07-.1-.29-.17-.47.05.02.11.04.16.06.12.06.22.14.28.23.02.05.15.3.21.49.05.14-.01.31-.07.46-.01.03-.04.11-.05.14-.13.35-.46.35-.46.35ZM8.39,16.32c-.06-.05-.24-.2-.38-.33.05-.01.11-.02.17-.02.13,0,.25,0,.36.05.05.03.28.18.43.31.11.1.14.27.17.43,0,.03.02.11.03.14.07.37-.22.53-.22.53-.26-.16-.31-.3-.32-.49v-.04c-.01-.15-.03-.41-.23-.58ZM7.28,16.94c-.07-.02-.27-.09-.44-.14.04-.03.09-.06.14-.08.11-.06.22-.08.32-.08.05,0,.3.06.48.11.13.04.22.18.3.3.02.03.06.09.07.11.19.29,0,.53,0,.53-.28-.05-.37-.15-.45-.3l-.02-.04c-.06-.13-.16-.34-.4-.42ZM6.3,17.79c.09-.08.19-.14.29-.16.05,0,.3-.02.49-.01.14,0,.26.12.37.21.02.02.08.07.1.09.26.23.14.51.14.51-.28.03-.4-.04-.51-.17l-.03-.03c-.09-.11-.25-.29-.49-.3-.07,0-.29-.01-.46-.02.03-.04.07-.08.11-.11Z"/>
  <g>
    <path class="c" d="M52.55,6.59h3.17l5.15,14.49h-2.62l-1.39-4.01h-5.54l-1.34,4.01h-2.56l5.14-14.49ZM52.54,4.14c-.41-.41-.62-.93-.62-1.56s.21-1.15.62-1.56.94-.62,1.59-.62,1.17.21,1.58.62.62.93.62,1.56-.21,1.15-.62,1.56-.94.62-1.58.62-1.17-.21-1.59-.62ZM56.14,14.94l-2.1-6.05-2.02,6.05h4.12ZM54.85,3.3c.17-.19.26-.43.26-.72s-.09-.54-.26-.72c-.18-.19-.42-.28-.72-.28s-.53.09-.7.28c-.17.19-.26.43-.26.72s.09.54.26.72c.18.19.41.28.7.28s.55-.09.72-.28Z"/>
    <path class="c" d="M63.1,20.31c-.8-.68-1.22-1.62-1.26-2.82h2.31c.03.64.25,1.14.65,1.49.41.35.97.52,1.7.52.62,0,1.1-.12,1.45-.36.35-.24.53-.56.53-.97,0-.46-.21-.8-.64-1.02-.43-.22-1.08-.42-1.96-.62-.81-.2-1.47-.39-1.97-.58-.5-.19-.93-.49-1.29-.89-.36-.41-.54-.95-.54-1.64,0-1.01.39-1.81,1.17-2.42.78-.6,1.81-.9,3.1-.9s2.34.32,3.07.96c.73.64,1.12,1.51,1.18,2.62h-2.31c-.04-.59-.24-1.04-.59-1.34-.35-.31-.84-.46-1.47-.46-.55,0-.97.11-1.28.33-.31.22-.46.52-.46.91,0,.45.21.77.62.98s1.06.41,1.94.62c.81.2,1.48.39,2,.59.52.2.96.5,1.32.92.36.42.55.99.55,1.72,0,1.05-.4,1.88-1.21,2.48-.8.6-1.89.9-3.24.9-1.43,0-2.54-.34-3.34-1.02Z"/>
    <path class="c" d="M73.81,20.31c-.8-.68-1.22-1.62-1.26-2.82h2.31c.03.64.25,1.14.65,1.49.41.35.97.52,1.7.52.62,0,1.1-.12,1.45-.36.35-.24.53-.56.53-.97,0-.46-.21-.8-.64-1.02-.43-.22-1.08-.42-1.96-.62-.81-.2-1.47-.39-1.97-.58-.5-.19-.93-.49-1.29-.89-.36-.41-.54-.95-.54-1.64,0-1.01.39-1.81,1.17-2.42.78-.6,1.81-.9,3.1-.9s2.34.32,3.07.96c.73.64,1.12,1.51,1.18,2.62h-2.31c-.04-.59-.24-1.04-.59-1.34-.35-.31-.84-.46-1.47-.46-.55,0-.97.11-1.28.33-.31.22-.46.52-.46.91,0,.45.21.77.62.98s1.06.41,1.94.62c.81.2,1.48.39,2,.59.52.2.96.5,1.32.92.36.42.55.99.55,1.72,0,1.05-.4,1.88-1.21,2.48-.8.6-1.89.9-3.24.9-1.43,0-2.54-.34-3.34-1.02Z"/>
    <path class="c" d="M83.72,6.59h2.44v2.39h-2.44v-2.39ZM83.76,10.37h2.35v10.71h-2.35v-10.71Z"/>
    <path class="c" d="M90.5,20.65c-.69-.46-1.24-1.11-1.63-1.95-.39-.85-.59-1.84-.59-2.97s.2-2.12.59-2.97c.39-.85.93-1.5,1.63-1.95.69-.46,1.47-.68,2.34-.68,1.33,0,2.37.53,3.11,1.58v-5.1h2.35v14.49h-2.27l-.06-1.37c-.36.52-.81.92-1.34,1.2s-1.13.42-1.78.42c-.87,0-1.65-.23-2.34-.68ZM95.27,18.38c.45-.64.67-1.52.67-2.66s-.22-2.02-.67-2.66c-.45-.64-1.07-.96-1.87-.96s-1.46.33-1.94.98c-.48.65-.72,1.53-.72,2.63s.24,1.99.72,2.64c.48.65,1.13.98,1.94.98s1.42-.32,1.87-.96Z"/>
    <path class="c" d="M102.91,20.64c-.78-.46-1.39-1.11-1.81-1.95-.42-.84-.63-1.81-.63-2.92s.22-2.13.67-2.98c.45-.85,1.07-1.51,1.87-1.97.8-.46,1.7-.69,2.71-.69,1.55,0,2.76.55,3.61,1.64.85,1.09,1.29,2.59,1.32,4.49h-7.71c.07.99.34,1.76.82,2.29s1.13.8,1.97.8c.63,0,1.15-.15,1.57-.45.42-.3.68-.73.78-1.29h2.44c-.15,1.15-.68,2.06-1.59,2.73s-2.01,1.01-3.31,1.01c-1.04,0-1.95-.23-2.73-.69ZM108.24,14.67c-.04-.83-.29-1.46-.74-1.9-.45-.44-1.05-.66-1.81-.66s-1.34.22-1.81.66c-.46.44-.76,1.08-.88,1.9h5.23Z"/>
    <path class="c" d="M112.82,10.37h2.27l.08,1.58c.38-.6.86-1.06,1.46-1.37.59-.31,1.23-.46,1.9-.46.71,0,1.35.17,1.9.49.55.33.99.79,1.3,1.39.32.59.47,1.28.47,2.07v7.01h-2.35v-6.59c0-.73-.18-1.29-.53-1.7-.35-.41-.85-.61-1.51-.61-.78,0-1.42.28-1.91.85-.49.57-.74,1.31-.74,2.24v5.82h-2.35v-10.71Z"/>
  </g>
</svg>